<?xml version="1.0" encoding="UTF-8"?>
<svg width="31px" height="25px" viewBox="0 0 31 25" version="1.1" xmlns="http://www.w3.org/2000/svg" xmlns:xlink="http://www.w3.org/1999/xlink">
    <!-- Generator: Sketch 50.2 (55047) - http://www.bohemiancoding.com/sketch -->
    <title>twitter</title>
    <desc>Created with Sketch.</desc>
    <defs></defs>
    <g id="Design" stroke="none" stroke-width="1" fill="none" fill-rule="evenodd">
        <g id="sign-in-recaptcha" transform="translate(-416.000000, -546.000000)" fill="#B7EA81">
            <path d="M446.40625,549.375977 C445.571289,550.635742 444.53125,551.705078 443.344727,552.569336 C443.344727,552.847656 443.344727,553.09668 443.344727,553.375 C443.344727,561.504883 437.163086,570.879883 425.854492,570.879883 C422.382812,570.879883 419.116211,570.118164 416.40625,568.375 C416.889648,568.448242 417.373047,568.477539 417.871094,568.477539 C420.742188,568.477539 423.422852,567.232422 425.50293,565.5625 C422.836914,565.533203 420.537109,563.716797 419.775391,561.285156 C420.15625,561.358398 420.537109,561.402344 420.917969,561.402344 C421.474609,561.402344 422.03125,561.329102 422.558594,561.182617 C419.746094,560.625977 417.62207,558.135742 417.62207,555.147461 C417.62207,555.118164 417.62207,555.118164 417.62207,555.074219 C418.457031,555.52832 419.394531,555.806641 420.405273,555.835938 C418.735352,554.722656 417.651367,552.847656 417.651367,550.738281 C417.651367,549.595703 417.973633,548.658203 418.486328,547.75 C421.547852,551.470703 426.05957,553.785156 431.157227,554.063477 C431.054688,553.624023 431.025391,553.125977 431.025391,552.642578 C431.025391,549.244141 433.764648,546.504883 437.163086,546.504883 C438.935547,546.504883 440.532227,547.266602 441.689453,548.438477 C443.066406,548.160156 444.399414,547.647461 445.571289,546.944336 C445.117188,548.379883 444.150391,549.595703 442.861328,550.357422 C444.121094,550.210938 445.292969,549.874023 446.40625,549.375977 Z" id="twitter"></path>
        </g>
    </g>
</svg>