<?xml version="1.0" encoding="UTF-8"?>
<svg width="91px" height="37px" viewBox="0 0 91 37" version="1.1" xmlns="http://www.w3.org/2000/svg" xmlns:xlink="http://www.w3.org/1999/xlink">
    <!-- Generator: Sketch 50.2 (55047) - http://www.bohemiancoding.com/sketch -->
    <title>ACME</title>
    <desc>Created with Sketch.</desc>
    <defs></defs>
    <g id="Design" stroke="none" stroke-width="1" fill="none" fill-rule="evenodd">
        <g id="account-overview-v2" transform="translate(-112.000000, -17.000000)" fill="#FFFFFF">
            <g id="masthead">
                <path d="M121.082031,41.1054688 L124.714844,41.1054688 L122.9375,28.0585938 L121.082031,41.1054688 Z M112.175781,53 L119.773438,17.84375 L126.0625,17.84375 L133.640625,53 L126.628906,53 L125.183594,45.4804688 L120.59375,45.4804688 L119.226562,53 L112.175781,53 Z M135.489323,41.2617188 L135.489323,29.6210938 C135.489323,21.3137605 138.887727,17.1601562 145.684636,17.1601562 C147.116934,17.1601562 148.389708,17.3522116 149.502995,17.7363281 C150.616282,18.1204446 151.550517,18.6510383 152.305729,19.328125 C153.060941,20.0052117 153.68268,20.8385367 154.170964,21.828125 C154.659247,22.8177133 155.010806,23.8919213 155.225651,25.0507812 C155.440496,26.2096412 155.547917,27.4856701 155.547917,28.8789062 L155.547917,31.90625 L148.555729,31.90625 L148.555729,28.6640625 C148.555729,28.0260385 148.542709,27.4759138 148.516667,27.0136719 C148.490625,26.55143 148.422266,26.0240915 148.311589,25.4316406 C148.200911,24.8391897 148.051173,24.3574237 147.86237,23.9863281 C147.673567,23.6152325 147.393622,23.2994805 147.022526,23.0390625 C146.651431,22.7786445 146.205471,22.6484375 145.684636,22.6484375 C143.627334,22.6484375 142.598698,24.380191 142.598698,27.84375 L142.598698,43.0195312 C142.598698,46.4700693 143.627334,48.1953125 145.684636,48.1953125 C146.296618,48.1953125 146.810936,48.019533 147.227604,47.6679688 C147.644273,47.3164045 147.943749,46.8183626 148.126042,46.1738281 C148.308334,45.5292937 148.432031,44.8977896 148.497136,44.2792969 C148.56224,43.6608042 148.594792,42.9544311 148.594792,42.1601562 L148.594792,38.546875 L155.547917,38.546875 L155.547917,41.515625 C155.521875,42.8567775 155.411199,44.0937443 155.215886,45.2265625 C155.020572,46.3593807 154.688544,47.4596301 154.219792,48.5273438 C153.751039,49.5950574 153.155342,50.4967411 152.432682,51.2324219 C151.710023,51.9681026 150.775787,52.5605446 149.629948,53.0097656 C148.484109,53.4589866 147.169018,53.6835938 145.684636,53.6835938 C144.16119,53.6835938 142.810292,53.465497 141.631901,53.0292969 C140.45351,52.5930968 139.483467,52.0071651 138.721745,51.2714844 C137.960022,50.5358036 137.331773,49.6308647 136.836979,48.5566406 C136.342185,47.4824165 135.993881,46.3528705 135.792057,45.1679688 C135.590233,43.983067 135.489323,42.6809967 135.489323,41.2617188 Z M159.134896,53 L159.134896,17.84375 L167.650521,17.84375 L171.400521,41.28125 L175.44349,17.84375 L183.666146,17.84375 L183.666146,53 L178.431771,53 L178.275521,28.2734375 C177.884894,30.8125127 177.201307,34.9335652 176.22474,40.6367188 C175.248172,46.3398723 174.564586,50.4609248 174.173959,53 L168.861459,53 L164.545052,28.1171875 L164.388802,53 L159.134896,53 Z M188.1125,53 L188.1125,17.84375 L202.780469,17.84375 L202.780469,22.7265625 L195.221875,22.7265625 L195.221875,32.296875 L200.573438,32.296875 L200.573438,37.296875 L195.221875,37.296875 L195.221875,48.1171875 L202.780469,48.1171875 L202.780469,53 L188.1125,53 Z" id="ACME"></path>
            </g>
        </g>
    </g>
</svg>