<svg
        xmlns="http://www.w3.org/2000/svg"
        xmlns:xlink="http://www.w3.org/1999/xlink"
        width="76px" height="76px">
    <path fill-rule="evenodd" fill="rgb(255, 255, 255)"
          d="M37.778,75.205 C17.038,75.205 0.222,58.369 0.222,37.601 C0.222,16.833 17.038,-0.002 37.778,-0.002 C58.526,-0.002 75.342,16.833 75.342,37.601 C75.342,58.369 58.526,75.205 37.778,75.205 ZM52.173,62.472 L52.173,54.381 L52.173,54.354 C51.230,53.576 50.120,52.676 48.898,51.719 C48.893,51.723 48.886,51.727 48.883,51.732 C47.917,50.978 46.887,50.181 45.798,49.371 C47.293,45.802 48.134,41.892 48.134,37.783 C48.134,33.869 47.370,30.136 46.006,26.709 C48.150,25.102 50.087,23.567 51.645,22.288 C51.829,22.141 52.003,21.995 52.173,21.855 L52.173,13.737 C52.095,13.809 52.016,13.878 51.930,13.958 C51.911,13.978 51.884,14.001 51.861,14.024 C51.794,14.081 51.732,14.139 51.660,14.204 C51.632,14.229 51.600,14.259 51.570,14.285 C51.498,14.348 51.425,14.412 51.355,14.477 C51.325,14.505 51.295,14.529 51.265,14.554 C51.184,14.624 51.099,14.698 51.012,14.778 C50.988,14.798 50.963,14.821 50.937,14.845 C50.836,14.930 50.738,15.019 50.630,15.109 C50.614,15.127 50.598,15.140 50.581,15.155 C49.160,16.386 47.203,18.024 44.950,19.794 C44.360,20.258 43.752,20.731 43.128,21.209 C40.264,16.904 36.337,13.371 31.702,11.021 C35.020,14.491 37.675,18.915 39.421,23.942 C38.691,24.461 37.954,24.977 37.211,25.480 L37.208,25.478 C36.991,25.626 36.777,25.772 36.562,25.916 C36.195,26.160 35.832,26.395 35.473,26.629 C35.269,26.761 35.067,26.887 34.862,27.018 C34.723,27.106 34.577,27.197 34.439,27.287 C34.181,27.447 33.924,27.606 33.671,27.760 C33.595,27.806 33.519,27.854 33.443,27.903 C33.163,28.072 32.889,28.238 32.610,28.402 C32.588,28.412 32.567,28.427 32.544,28.438 C32.319,28.566 32.094,28.690 31.867,28.816 C24.623,32.795 17.705,35.971 11.229,38.080 C16.282,39.727 21.577,42.026 27.099,44.846 C27.099,44.863 27.103,44.882 27.105,44.901 C27.843,45.248 28.592,45.616 29.346,46.013 C29.371,46.029 29.394,46.040 29.416,46.052 C31.702,47.249 34.082,48.667 36.562,50.319 C37.457,50.913 38.349,51.532 39.229,52.155 C37.486,56.967 34.902,61.198 31.702,64.544 C36.177,62.275 39.994,58.904 42.828,54.800 C47.078,58.029 50.644,61.087 52.173,62.497 L52.173,62.472 ZM40.261,45.452 C39.648,45.044 39.041,44.651 38.438,44.263 C38.441,44.260 38.443,44.253 38.448,44.244 C34.317,41.624 30.398,39.583 26.651,38.103 C26.681,38.094 26.708,38.080 26.736,38.071 C27.103,37.926 27.475,37.770 27.849,37.615 C27.881,37.601 27.911,37.588 27.943,37.576 C31.845,35.915 35.940,33.660 40.261,30.783 C40.530,30.606 40.790,30.424 41.056,30.245 C41.481,32.673 41.714,35.197 41.714,37.783 C41.714,40.584 41.445,43.305 40.947,45.914 C40.720,45.758 40.491,45.604 40.261,45.452 Z"/>
</svg>