<svg
        xmlns="http://www.w3.org/2000/svg"
        xmlns:xlink="http://www.w3.org/1999/xlink"
        width="70px" height="61px">
    <path fill-rule="evenodd" fill="rgb(60, 115, 154)"
          d="M69.546,55.823 C69.256,56.514 68.842,57.133 68.315,57.666 C67.788,58.198 67.176,58.617 66.494,58.910 C65.787,59.214 65.037,59.368 64.266,59.368 L34.165,59.368 C33.995,59.368 33.846,59.300 33.721,59.204 C32.681,60.266 31.241,60.926 29.650,60.926 L5.724,60.926 C2.563,60.926 -0.008,58.326 -0.008,55.129 L-0.008,6.739 C-0.008,3.542 2.563,0.942 5.724,0.942 L29.650,0.942 C32.812,0.942 35.383,3.542 35.383,6.739 L35.383,23.579 L64.266,23.579 C65.037,23.579 65.787,23.732 66.494,24.037 C67.176,24.330 67.788,24.748 68.315,25.281 C68.842,25.814 69.256,26.433 69.546,27.123 C69.847,27.838 69.998,28.596 69.998,29.375 L69.998,53.571 C69.998,54.350 69.847,55.109 69.546,55.823 ZM33.887,6.739 C33.887,4.376 31.987,2.455 29.650,2.455 L5.724,2.455 C3.388,2.455 1.488,4.376 1.488,6.739 L1.488,11.024 L33.887,11.024 L33.887,6.739 ZM33.887,12.536 L1.488,12.536 L1.488,49.333 L33.887,49.333 L33.887,12.536 ZM33.887,50.845 L1.488,50.845 L1.488,55.129 C1.488,57.492 3.388,59.414 5.724,59.414 L29.650,59.414 C31.987,59.414 33.887,57.492 33.887,55.129 L33.887,50.845 ZM58.534,25.091 L35.383,25.091 L35.383,55.129 C35.383,56.120 35.113,57.039 34.678,57.856 L58.534,57.856 L58.534,25.091 ZM68.503,29.375 C68.503,28.801 68.391,28.241 68.169,27.714 C67.955,27.204 67.648,26.745 67.258,26.350 C66.867,25.956 66.414,25.645 65.909,25.429 C65.388,25.205 64.835,25.091 64.266,25.091 L60.029,25.091 L60.029,57.856 L64.266,57.856 C64.835,57.856 65.388,57.742 65.909,57.518 C66.414,57.301 66.867,56.991 67.258,56.596 C67.648,56.201 67.955,55.743 68.169,55.233 C68.391,54.705 68.503,54.146 68.503,53.571 L68.503,29.375 ZM63.269,49.286 C62.856,49.286 62.521,48.948 62.521,48.530 L62.521,34.417 C62.521,33.999 62.856,33.660 63.269,33.660 C63.682,33.660 64.017,33.999 64.017,34.417 L64.017,48.530 C64.017,48.948 63.682,49.286 63.269,49.286 ZM17.687,57.902 C16.176,57.902 14.946,56.658 14.946,55.129 C14.946,53.600 16.176,52.357 17.687,52.357 C19.199,52.357 20.429,53.600 20.429,55.129 C20.429,56.658 19.199,57.902 17.687,57.902 ZM17.687,53.869 C17.000,53.869 16.441,54.434 16.441,55.129 C16.441,55.824 17.000,56.389 17.687,56.389 C18.375,56.389 18.934,55.824 18.934,55.129 C18.934,54.434 18.375,53.869 17.687,53.869 ZM10.709,6.991 L24.666,6.991 C25.079,6.991 25.414,7.330 25.414,7.747 C25.414,8.165 25.079,8.503 24.666,8.503 L10.709,8.503 C10.296,8.503 9.961,8.165 9.961,7.747 C9.961,7.330 10.296,6.991 10.709,6.991 Z"/>
</svg>