<svg
        xmlns="http://www.w3.org/2000/svg"
        xmlns:xlink="http://www.w3.org/1999/xlink"
        width="78px" height="48px">
    <path fill-rule="evenodd" fill="rgb(60, 115, 154)"
          d="M68.221,47.980 L68.213,47.982 L11.969,47.982 L11.969,47.918 C5.201,47.247 -0.001,41.080 -0.001,33.548 C-0.001,25.921 5.459,19.634 12.325,19.146 C12.311,18.841 12.304,18.542 12.304,18.249 C12.304,8.181 19.780,-0.010 28.969,-0.010 C36.306,-0.010 42.699,5.185 44.866,12.759 C47.387,10.993 50.284,10.066 53.311,10.066 C61.694,10.066 68.609,17.351 69.018,26.443 C74.033,26.942 78.001,31.607 78.001,37.189 C78.001,43.082 73.613,47.923 68.221,47.980 ZM68.273,27.907 L67.544,27.892 L67.538,27.159 C67.472,18.564 61.090,11.573 53.311,11.573 C50.257,11.573 47.345,12.628 44.890,14.623 L43.953,15.385 L43.688,14.204 C42.008,6.722 35.955,1.496 28.969,1.496 C20.606,1.496 13.803,9.011 13.803,18.249 C13.803,18.749 13.825,19.272 13.870,19.805 L13.938,20.617 L13.127,20.622 C6.714,20.657 1.498,26.455 1.498,33.548 C1.498,40.534 6.439,46.207 12.749,46.464 L13.047,46.475 L68.209,46.475 C72.782,46.422 76.502,42.258 76.502,37.189 C76.502,32.158 72.810,27.994 68.273,27.907 ZM30.145,6.194 C24.075,6.194 19.137,11.158 19.137,17.258 C19.137,17.674 18.801,18.011 18.387,18.011 C17.974,18.011 17.638,17.674 17.638,17.258 C17.638,10.328 23.249,4.688 30.145,4.688 C30.559,4.688 30.894,5.025 30.894,5.441 C30.894,5.857 30.559,6.194 30.145,6.194 Z"/>
</svg>