<?xml version="1.0" encoding="UTF-8"?>
<svg width="182px" height="74px" viewBox="0 0 182 74" version="1.1" xmlns="http://www.w3.org/2000/svg" xmlns:xlink="http://www.w3.org/1999/xlink">
    <!-- Generator: Sketch 50.2 (55047) - http://www.bohemiancoding.com/sketch -->
    <title>ACME</title>
    <desc>Created with Sketch.</desc>
    <defs></defs>
    <g id="Design" stroke="none" stroke-width="1" fill="none" fill-rule="evenodd">
        <g id="sign-in-recaptcha" transform="translate(-971.000000, -175.000000)" fill="#2F81D0">
            <path d="M989.167708,223.210938 L996.433333,223.210938 L992.878646,197.117188 L989.167708,223.210938 Z M971.355208,247 L986.550521,176.6875 L999.128646,176.6875 L1014.2849,247 L1000.26146,247 L997.370833,231.960938 L988.191146,231.960938 L985.456771,247 L971.355208,247 Z M1017.98229,223.523438 L1017.98229,200.242188 C1017.98229,183.627521 1024.7791,175.320312 1038.37292,175.320312 C1041.23751,175.320312 1043.78306,175.704423 1046.00964,176.472656 C1048.23621,177.240889 1050.10468,178.302077 1051.6151,179.65625 C1053.12553,181.010423 1054.36901,182.677073 1055.34557,184.65625 C1056.32214,186.635427 1057.02526,188.783843 1057.45495,191.101562 C1057.88464,193.419282 1058.09948,195.97134 1058.09948,198.757812 L1058.09948,204.8125 L1044.1151,204.8125 L1044.1151,198.328125 C1044.1151,197.052077 1044.08906,195.951828 1044.03698,195.027344 C1043.9849,194.10286 1043.84818,193.048183 1043.62682,191.863281 C1043.40547,190.678379 1043.10599,189.714847 1042.72839,188.972656 C1042.35078,188.230465 1041.79089,187.598961 1041.0487,187.078125 C1040.30651,186.557289 1039.41459,186.296875 1038.37292,186.296875 C1034.25831,186.296875 1032.20104,189.760382 1032.20104,196.6875 L1032.20104,227.039062 C1032.20104,233.940139 1034.25831,237.390625 1038.37292,237.390625 C1039.59688,237.390625 1040.62552,237.039066 1041.45885,236.335938 C1042.29219,235.632809 1042.89114,234.636725 1043.25573,233.347656 C1043.62031,232.058587 1043.86771,230.795579 1043.99792,229.558594 C1044.12813,228.321608 1044.19323,226.908862 1044.19323,225.320312 L1044.19323,218.09375 L1058.09948,218.09375 L1058.09948,224.03125 C1058.0474,226.713555 1057.82604,229.187489 1057.43542,231.453125 C1057.04479,233.718761 1056.38073,235.91926 1055.44323,238.054688 C1054.50572,240.190115 1053.31433,241.993482 1051.86901,243.464844 C1050.42369,244.936205 1048.55522,246.121089 1046.26354,247.019531 C1043.97186,247.917973 1041.34168,248.367188 1038.37292,248.367188 C1035.32603,248.367188 1032.62423,247.930994 1030.26745,247.058594 C1027.91067,246.186194 1025.97058,245.01433 1024.44714,243.542969 C1022.92369,242.071607 1021.66719,240.261729 1020.6776,238.113281 C1019.68802,235.964833 1018.99141,233.705741 1018.58776,231.335938 C1018.18411,228.966134 1017.98229,226.361993 1017.98229,223.523438 Z M1065.27344,247 L1065.27344,176.6875 L1082.30469,176.6875 L1089.80469,223.5625 L1097.89062,176.6875 L1114.33594,176.6875 L1114.33594,247 L1103.86719,247 L1103.55469,197.546875 C1102.77343,202.625025 1101.40626,210.86713 1099.45312,222.273438 C1097.49999,233.679745 1096.13282,241.92185 1095.35156,247 L1084.72656,247 L1076.09375,197.234375 L1075.78125,247 L1065.27344,247 Z M1123.22865,247 L1123.22865,176.6875 L1152.56458,176.6875 L1152.56458,186.453125 L1137.4474,186.453125 L1137.4474,205.59375 L1148.15052,205.59375 L1148.15052,215.59375 L1137.4474,215.59375 L1137.4474,237.234375 L1152.56458,237.234375 L1152.56458,247 L1123.22865,247 Z" id="ACME"></path>
        </g>
    </g>
</svg>